<mxfile host="Electron" modified="2024-04-16T15:08:47.417Z" agent="Mozilla/5.0 (Macintosh; Intel Mac OS X 10_15_7) AppleWebKit/537.36 (KHTML, like Gecko) draw.io/24.2.5 Chrome/120.0.6099.109 Electron/28.1.0 Safari/537.36" etag="sLpZwWoGdG9n6RSsNcCK" version="24.2.5" type="device">
  <diagram name="Page-1" id="Ubsi82FXrJ84JTMSO0Vv">
    <mxGraphModel dx="1468" dy="972" grid="1" gridSize="10" guides="1" tooltips="1" connect="1" arrows="1" fold="1" page="1" pageScale="1" pageWidth="827" pageHeight="1169" math="0" shadow="0">
      <root>
        <mxCell id="0" />
        <mxCell id="1" parent="0" />
        <mxCell id="HHepQD5sLUjkT5evg1_J-10" style="edgeStyle=orthogonalEdgeStyle;rounded=0;orthogonalLoop=1;jettySize=auto;html=1;exitX=0.5;exitY=1;exitDx=0;exitDy=0;entryX=0.5;entryY=0;entryDx=0;entryDy=0;" edge="1" parent="1" source="HHepQD5sLUjkT5evg1_J-8" target="HHepQD5sLUjkT5evg1_J-9">
          <mxGeometry relative="1" as="geometry" />
        </mxCell>
        <mxCell id="HHepQD5sLUjkT5evg1_J-8" value="START" style="ellipse;whiteSpace=wrap;html=1;" vertex="1" parent="1">
          <mxGeometry width="120" height="80" as="geometry" />
        </mxCell>
        <mxCell id="HHepQD5sLUjkT5evg1_J-12" value="" style="edgeStyle=orthogonalEdgeStyle;rounded=0;orthogonalLoop=1;jettySize=auto;html=1;" edge="1" parent="1" source="HHepQD5sLUjkT5evg1_J-9" target="HHepQD5sLUjkT5evg1_J-11">
          <mxGeometry relative="1" as="geometry" />
        </mxCell>
        <mxCell id="HHepQD5sLUjkT5evg1_J-9" value="New user data" style="shape=parallelogram;perimeter=parallelogramPerimeter;whiteSpace=wrap;html=1;fixedSize=1;" vertex="1" parent="1">
          <mxGeometry y="160" width="120" height="60" as="geometry" />
        </mxCell>
        <mxCell id="HHepQD5sLUjkT5evg1_J-14" value="" style="edgeStyle=orthogonalEdgeStyle;rounded=0;orthogonalLoop=1;jettySize=auto;html=1;" edge="1" parent="1" source="HHepQD5sLUjkT5evg1_J-11" target="HHepQD5sLUjkT5evg1_J-13">
          <mxGeometry relative="1" as="geometry" />
        </mxCell>
        <mxCell id="HHepQD5sLUjkT5evg1_J-11" value="Get old user data" style="whiteSpace=wrap;html=1;" vertex="1" parent="1">
          <mxGeometry x="190" y="160" width="120" height="60" as="geometry" />
        </mxCell>
        <mxCell id="HHepQD5sLUjkT5evg1_J-16" value="" style="edgeStyle=orthogonalEdgeStyle;rounded=0;orthogonalLoop=1;jettySize=auto;html=1;" edge="1" parent="1" source="HHepQD5sLUjkT5evg1_J-13" target="HHepQD5sLUjkT5evg1_J-15">
          <mxGeometry relative="1" as="geometry" />
        </mxCell>
        <mxCell id="HHepQD5sLUjkT5evg1_J-13" value="Get old user data IDs" style="whiteSpace=wrap;html=1;" vertex="1" parent="1">
          <mxGeometry x="380" y="160" width="120" height="60" as="geometry" />
        </mxCell>
        <mxCell id="HHepQD5sLUjkT5evg1_J-19" value="" style="edgeStyle=orthogonalEdgeStyle;rounded=0;orthogonalLoop=1;jettySize=auto;html=1;" edge="1" parent="1" source="HHepQD5sLUjkT5evg1_J-15" target="HHepQD5sLUjkT5evg1_J-18">
          <mxGeometry relative="1" as="geometry" />
        </mxCell>
        <mxCell id="HHepQD5sLUjkT5evg1_J-15" value="Check if new user data already exists in referenced table" style="whiteSpace=wrap;html=1;" vertex="1" parent="1">
          <mxGeometry x="380" y="290" width="120" height="60" as="geometry" />
        </mxCell>
        <mxCell id="HHepQD5sLUjkT5evg1_J-21" value="" style="edgeStyle=orthogonalEdgeStyle;rounded=0;orthogonalLoop=1;jettySize=auto;html=1;" edge="1" parent="1" source="HHepQD5sLUjkT5evg1_J-18" target="HHepQD5sLUjkT5evg1_J-20">
          <mxGeometry relative="1" as="geometry" />
        </mxCell>
        <mxCell id="HHepQD5sLUjkT5evg1_J-18" value="Check if new user data IDs are unique in referencing table" style="whiteSpace=wrap;html=1;" vertex="1" parent="1">
          <mxGeometry x="190" y="290" width="120" height="60" as="geometry" />
        </mxCell>
        <mxCell id="HHepQD5sLUjkT5evg1_J-26" value="" style="edgeStyle=orthogonalEdgeStyle;rounded=0;orthogonalLoop=1;jettySize=auto;html=1;" edge="1" parent="1" source="HHepQD5sLUjkT5evg1_J-20" target="HHepQD5sLUjkT5evg1_J-25">
          <mxGeometry relative="1" as="geometry" />
        </mxCell>
        <mxCell id="HHepQD5sLUjkT5evg1_J-27" value="No" style="edgeLabel;html=1;align=center;verticalAlign=middle;resizable=0;points=[];" vertex="1" connectable="0" parent="HHepQD5sLUjkT5evg1_J-26">
          <mxGeometry x="-0.2444" y="2" relative="1" as="geometry">
            <mxPoint as="offset" />
          </mxGeometry>
        </mxCell>
        <mxCell id="HHepQD5sLUjkT5evg1_J-31" value="" style="edgeStyle=orthogonalEdgeStyle;rounded=0;orthogonalLoop=1;jettySize=auto;html=1;entryX=0;entryY=0.5;entryDx=0;entryDy=0;" edge="1" parent="1" source="HHepQD5sLUjkT5evg1_J-20" target="HHepQD5sLUjkT5evg1_J-33">
          <mxGeometry relative="1" as="geometry">
            <mxPoint x="350" y="460" as="targetPoint" />
          </mxGeometry>
        </mxCell>
        <mxCell id="HHepQD5sLUjkT5evg1_J-32" value="Yes" style="edgeLabel;html=1;align=center;verticalAlign=middle;resizable=0;points=[];" vertex="1" connectable="0" parent="HHepQD5sLUjkT5evg1_J-31">
          <mxGeometry x="-0.3667" y="1" relative="1" as="geometry">
            <mxPoint as="offset" />
          </mxGeometry>
        </mxCell>
        <mxCell id="HHepQD5sLUjkT5evg1_J-20" value="New user data exists in referenced table?" style="rhombus;whiteSpace=wrap;html=1;" vertex="1" parent="1">
          <mxGeometry x="210" y="420" width="80" height="80" as="geometry" />
        </mxCell>
        <mxCell id="HHepQD5sLUjkT5evg1_J-29" style="edgeStyle=orthogonalEdgeStyle;rounded=0;orthogonalLoop=1;jettySize=auto;html=1;exitX=0.5;exitY=1;exitDx=0;exitDy=0;entryX=0;entryY=0.5;entryDx=0;entryDy=0;" edge="1" parent="1" source="HHepQD5sLUjkT5evg1_J-25" target="HHepQD5sLUjkT5evg1_J-28">
          <mxGeometry relative="1" as="geometry" />
        </mxCell>
        <mxCell id="HHepQD5sLUjkT5evg1_J-25" value="Update referenced table" style="whiteSpace=wrap;html=1;" vertex="1" parent="1">
          <mxGeometry y="430" width="120" height="60" as="geometry" />
        </mxCell>
        <mxCell id="HHepQD5sLUjkT5evg1_J-28" value="END" style="ellipse;whiteSpace=wrap;html=1;" vertex="1" parent="1">
          <mxGeometry x="380" y="780" width="120" height="80" as="geometry" />
        </mxCell>
        <mxCell id="HHepQD5sLUjkT5evg1_J-35" value="" style="edgeStyle=orthogonalEdgeStyle;rounded=0;orthogonalLoop=1;jettySize=auto;html=1;" edge="1" parent="1" source="HHepQD5sLUjkT5evg1_J-33" target="HHepQD5sLUjkT5evg1_J-34">
          <mxGeometry relative="1" as="geometry" />
        </mxCell>
        <mxCell id="HHepQD5sLUjkT5evg1_J-36" value="No" style="edgeLabel;html=1;align=center;verticalAlign=middle;resizable=0;points=[];" vertex="1" connectable="0" parent="HHepQD5sLUjkT5evg1_J-35">
          <mxGeometry x="-0.1333" relative="1" as="geometry">
            <mxPoint as="offset" />
          </mxGeometry>
        </mxCell>
        <mxCell id="HHepQD5sLUjkT5evg1_J-39" value="" style="edgeStyle=orthogonalEdgeStyle;rounded=0;orthogonalLoop=1;jettySize=auto;html=1;" edge="1" parent="1" source="HHepQD5sLUjkT5evg1_J-33" target="HHepQD5sLUjkT5evg1_J-38">
          <mxGeometry relative="1" as="geometry" />
        </mxCell>
        <mxCell id="HHepQD5sLUjkT5evg1_J-40" value="Yes" style="edgeLabel;html=1;align=center;verticalAlign=middle;resizable=0;points=[];" vertex="1" connectable="0" parent="HHepQD5sLUjkT5evg1_J-39">
          <mxGeometry x="-0.325" y="1" relative="1" as="geometry">
            <mxPoint as="offset" />
          </mxGeometry>
        </mxCell>
        <mxCell id="HHepQD5sLUjkT5evg1_J-33" value="New user data ID is unique in referencing table?" style="rhombus;whiteSpace=wrap;html=1;" vertex="1" parent="1">
          <mxGeometry x="400" y="420" width="80" height="80" as="geometry" />
        </mxCell>
        <mxCell id="HHepQD5sLUjkT5evg1_J-37" style="edgeStyle=orthogonalEdgeStyle;rounded=0;orthogonalLoop=1;jettySize=auto;html=1;exitX=0.5;exitY=1;exitDx=0;exitDy=0;entryX=0.5;entryY=0;entryDx=0;entryDy=0;" edge="1" parent="1" source="HHepQD5sLUjkT5evg1_J-34" target="HHepQD5sLUjkT5evg1_J-28">
          <mxGeometry relative="1" as="geometry" />
        </mxCell>
        <mxCell id="HHepQD5sLUjkT5evg1_J-34" value="Update referencing table" style="whiteSpace=wrap;html=1;" vertex="1" parent="1">
          <mxGeometry x="380" y="590" width="120" height="60" as="geometry" />
        </mxCell>
        <mxCell id="HHepQD5sLUjkT5evg1_J-41" style="edgeStyle=orthogonalEdgeStyle;rounded=0;orthogonalLoop=1;jettySize=auto;html=1;exitX=0.5;exitY=1;exitDx=0;exitDy=0;entryX=1;entryY=0.5;entryDx=0;entryDy=0;" edge="1" parent="1" source="HHepQD5sLUjkT5evg1_J-38" target="HHepQD5sLUjkT5evg1_J-28">
          <mxGeometry relative="1" as="geometry">
            <mxPoint x="190" y="740" as="targetPoint" />
          </mxGeometry>
        </mxCell>
        <mxCell id="HHepQD5sLUjkT5evg1_J-43" value="No" style="edgeLabel;html=1;align=center;verticalAlign=middle;resizable=0;points=[];" vertex="1" connectable="0" parent="HHepQD5sLUjkT5evg1_J-41">
          <mxGeometry x="-0.7757" y="3" relative="1" as="geometry">
            <mxPoint as="offset" />
          </mxGeometry>
        </mxCell>
        <mxCell id="HHepQD5sLUjkT5evg1_J-46" value="" style="edgeStyle=orthogonalEdgeStyle;rounded=0;orthogonalLoop=1;jettySize=auto;html=1;" edge="1" parent="1" source="HHepQD5sLUjkT5evg1_J-38" target="HHepQD5sLUjkT5evg1_J-45">
          <mxGeometry relative="1" as="geometry" />
        </mxCell>
        <mxCell id="HHepQD5sLUjkT5evg1_J-47" value="Yes" style="edgeLabel;html=1;align=center;verticalAlign=middle;resizable=0;points=[];" vertex="1" connectable="0" parent="HHepQD5sLUjkT5evg1_J-46">
          <mxGeometry x="-0.3623" relative="1" as="geometry">
            <mxPoint as="offset" />
          </mxGeometry>
        </mxCell>
        <mxCell id="HHepQD5sLUjkT5evg1_J-38" value="New user data != old user data?" style="rhombus;whiteSpace=wrap;html=1;" vertex="1" parent="1">
          <mxGeometry x="560" y="420" width="80" height="80" as="geometry" />
        </mxCell>
        <mxCell id="HHepQD5sLUjkT5evg1_J-49" value="" style="edgeStyle=orthogonalEdgeStyle;rounded=0;orthogonalLoop=1;jettySize=auto;html=1;" edge="1" parent="1" source="HHepQD5sLUjkT5evg1_J-45" target="HHepQD5sLUjkT5evg1_J-48">
          <mxGeometry relative="1" as="geometry" />
        </mxCell>
        <mxCell id="HHepQD5sLUjkT5evg1_J-45" value="Update referencing table" style="whiteSpace=wrap;html=1;" vertex="1" parent="1">
          <mxGeometry x="700" y="430" width="120" height="60" as="geometry" />
        </mxCell>
        <mxCell id="HHepQD5sLUjkT5evg1_J-50" style="edgeStyle=orthogonalEdgeStyle;rounded=0;orthogonalLoop=1;jettySize=auto;html=1;exitX=0.5;exitY=1;exitDx=0;exitDy=0;entryX=0.5;entryY=1;entryDx=0;entryDy=0;" edge="1" parent="1" source="HHepQD5sLUjkT5evg1_J-48" target="HHepQD5sLUjkT5evg1_J-28">
          <mxGeometry relative="1" as="geometry" />
        </mxCell>
        <mxCell id="HHepQD5sLUjkT5evg1_J-48" value="Delete old user data from referenced table" style="whiteSpace=wrap;html=1;" vertex="1" parent="1">
          <mxGeometry x="700" y="570" width="120" height="60" as="geometry" />
        </mxCell>
      </root>
    </mxGraphModel>
  </diagram>
</mxfile>
